<svg width="24" height="24" viewBox="0 0 24 24" fill="none" xmlns="http://www.w3.org/2000/svg">
<path d="M16.6378 5H6.36222C6.21111 5 5.98445 5.07692 5.90889 5.23077L3.11333 9.38462C2.96222 9.61538 2.96222 9.84615 3.11333 10.0769L11.0467 19.7692C11.2733 20.0769 11.7267 20.0769 11.9533 19.7692L19.8867 10.0769C20.0378 9.84615 20.0378 9.61538 19.8867 9.38462L17.0911 5.23077C17.0156 5.07692 16.7889 5 16.6378 5Z" fill="#C800F0"/>
<path d="M14.146 13.3561C13.5418 11.7432 12.3334 10.4375 10.6719 9.82305C12.2579 9.20861 13.5418 7.97974 14.146 6.29004C14.7502 7.90294 15.9586 9.20861 17.6201 9.82305C16.0341 10.4375 14.7502 11.7432 14.146 13.3561Z" fill="#57C145"/>
</svg>
