<svg width="24" height="24" viewBox="0 0 24 24" fill="none" xmlns="http://www.w3.org/2000/svg">
<path d="M13.2962 4H7.36803C6.33871 4 5.5 4.80656 5.5 5.8007V18.1993C5.5 19.1934 6.33871 20 7.36803 20H16.632C17.6613 20 18.5 19.1934 18.5 18.1993V8.98945L13.2962 4Z" fill="#0066FF"/>
<path d="M13.2959 4V7.2075C13.2959 8.20164 14.1346 9.00821 15.1639 9.00821H18.4997" fill="#4DF4E3"/>
<path d="M13.2584 16.38H9.04574C8.58826 16.38 8.20703 16.0236 8.20703 15.5734C8.20703 15.1232 8.58826 14.7668 9.04574 14.7668H13.2584C13.7158 14.7668 14.0971 15.1232 14.0971 15.5734C14.0971 16.0236 13.7158 16.38 13.2584 16.38Z" fill="#4DF4E3"/>
<path d="M14.9358 13.0411H9.04574C8.58826 13.0411 8.20703 12.6847 8.20703 12.2345C8.20703 11.7844 8.58826 11.428 9.04574 11.428H14.9358C15.3933 11.428 15.7745 11.7844 15.7745 12.2345C15.7745 12.6847 15.3933 13.0411 14.9358 13.0411Z" fill="#4DF4E3"/>
</svg>
