<svg width="24" height="24" viewBox="0 0 24 24" fill="none" xmlns="http://www.w3.org/2000/svg">
<path d="M5.29317 11.7378C7.11194 11.7378 8.58633 10.2295 8.58633 8.36891C8.58633 6.50831 7.11194 5 5.29317 5C3.47441 5 2 6.50831 2 8.36891C2 10.2295 3.47441 11.7378 5.29317 11.7378Z" fill="#54D931"/>
<path d="M7.3012 16.6313H3.28514C2.56225 16.6313 2 16.0698 2 15.3479C2 13.9843 3.1245 12.8613 4.48996 12.8613H6.17669C7.54215 12.8613 8.66665 13.9843 8.66665 15.3479C8.58633 15.9896 8.02409 16.6313 7.3012 16.6313Z" fill="#B348FF"/>
<path d="M11.9602 15.1072C13.7789 15.1072 15.2533 13.5989 15.2533 11.7383C15.2533 9.8777 13.7789 8.36938 11.9602 8.36938C10.1414 8.36938 8.66699 9.8777 8.66699 11.7383C8.66699 13.5989 10.1414 15.1072 11.9602 15.1072Z" fill="#B348FF"/>
<path d="M13.9682 19.9999H9.95213C9.22924 19.9999 8.66699 19.4385 8.66699 18.7166C8.66699 17.353 9.79149 16.23 11.157 16.23H12.8437C14.2091 16.23 15.3336 17.353 15.3336 18.7166C15.2533 19.4385 14.6911 19.9999 13.9682 19.9999Z" fill="#54D931"/>
<path d="M18.6262 11.7378C20.4449 11.7378 21.9193 10.2295 21.9193 8.36891C21.9193 6.50831 20.4449 5 18.6262 5C16.8074 5 15.333 6.50831 15.333 8.36891C15.333 10.2295 16.8074 11.7378 18.6262 11.7378Z" fill="#54D931"/>
<path d="M20.6342 16.6313H16.6181C15.8952 16.6313 15.333 16.0698 15.333 15.3479C15.333 13.9843 16.4575 12.8613 17.823 12.8613H19.5097C20.8752 12.8613 21.9997 13.9843 21.9997 15.3479C21.9193 15.9896 21.3571 16.6313 20.6342 16.6313Z" fill="#B348FF"/>
</svg>
